# xmcd
#
# Track frame offsets:
#	150
#	13424
#	33496
#	53059
#	85981
#	104684
#	119277
#	131247
#	146279
#	163040
#
# Disc length: 2420 seconds
#
# Revision: 0
# Processed by: cddbd v1.5.1PL0 Copyright (c) Steve Scherf et al.
# Submitted via: dBpowerAMP V4.0
#
DISCID=8c09720a
DTITLE=Pagosa Hot Strings - Times Like These
DYEAR=1999
DGENRE=Bluegrass
TTITLE0=Big Mon
TTITLE1=Times Like These
TTITLE2=Spirit of the Night
TTITLE3=Little Red-Haired Rabbit
TTITLE4=Surrounded
TTITLE5=Make Your Life
TTITLE6=Snack Crackers and Bread
TTITLE7=Josef
TTITLE8=Treasure Huntin'
TTITLE9=Eustace and the Dragon
EXTD=
EXTT0=
EXTT1=
EXTT2=
EXTT3=
EXTT4=
EXTT5=
EXTT6=
EXTT7=
EXTT8=
EXTT9=
PLAYORDER=
